Coordinates
version=1
nRows=18
nColumns=22
inDegrees=yes

Units are S.I. units (second, meters, Newtons, ...)
If the header above contains a line with 'inDegrees', this indicates whether rotational values are in degrees (yes) or radians (no).

endheader
time	pelvis_tilt	pelvis_list	pelvis_rotation	pelvis_tx	pelvis_ty	pelvis_tz	hip_flexion_r	hip_adduction_r	hip_rotation_r	knee_angle_r	ankle_angle_r	subtalar_angle_r	hip_flexion_l	hip_adduction_l	hip_rotation_l	knee_angle_l	ankle_angle_l	subtalar_angle_l	lumbar_extension	lumbar_bending	lumbar_rotation
      3.93000000	     -1.35703986	     -2.83063280	    -97.68771968	      0.46031975	      0.91486861	      0.94069916	      9.99261997	     -3.81694135	     -6.47132553	    -32.82229587	     16.12988332	     -7.42121002	      8.98830848	     -1.47040512	     -8.60261726	    -19.12989474	      6.61555217	      1.37614656	    -10.68857834	     -0.25714695	      0.14069862
      3.94000000	     -1.56290234	     -2.85965222	    -97.84435153	      0.46052307	      0.91539609	      0.94456421	      9.65395225	     -3.42574291	     -6.84095757	    -30.49954623	     16.23300739	     -6.75900759	      8.61177012	     -1.62373689	     -8.66205882	    -19.08697118	      6.85905981	      1.28279080	    -10.82777004	     -0.12710945	     -0.05800513
      3.95000000	     -1.79317471	     -2.79921912	    -97.99940810	      0.46058092	      0.91569367	      0.94831907	      9.40574229	     -2.94736241	     -7.02075121	    -28.31019618	     16.24569935	     -6.36555433	      8.39874828	     -1.84956437	     -8.81025348	    -19.16716863	      7.17323484	      1.23167913	    -10.84837720	      0.04303044	     -0.22086056
      3.96000000	     -1.96900135	     -2.83025825	    -98.12901184	      0.46061535	      0.91605868	      0.95208452	      9.04945044	     -2.52759376	     -7.07014618	    -26.26783733	     16.28236112	     -5.67711026	      8.05944337	     -1.98461266	     -8.85717418	    -19.17477380	      7.43275051	      1.15020905	    -10.94137209	      0.14148027	     -0.36770345
      3.97000000	     -2.15019244	     -2.77693217	    -98.26559020	      0.46052162	      0.91619349	      0.95574248	      8.81614503	     -2.05985037	     -6.90616270	    -24.44894054	     16.24367429	     -5.31555452	      7.86491327	     -2.16738962	     -8.98851015	    -19.27858726	      7.76064719	      1.11118434	    -10.91700278	      0.25596941	     -0.47364814
      3.98000000	     -2.28134556	     -2.80408941	    -98.38488846	      0.46040578	      0.91637548	      0.95939279	      8.51404632	     -1.65671922	     -6.59863360	    -22.84281002	     16.21424884	     -4.72396617	      7.56529812	     -2.27293072	     -9.06007830	    -19.32922353	      8.04692175	      1.05109336	    -10.95550397	      0.30429866	     -0.55427366
      3.99000000	     -2.41439130	     -2.73766155	    -98.51037221	      0.46018520	      0.91633010	      0.96292096	      8.35327295	     -1.22170486	     -6.08586582	    -21.48444639	     16.12035849	     -4.42520196	      7.40754133	     -2.41662490	     -9.17814404	    -19.44720765	      8.36046682	      1.03022704	    -10.86800233	      0.36706485	     -0.57008362
      4.00000000	     -2.49096016	     -2.74773654	    -98.63192534	      0.45992712	      0.91633639	      0.96642258	      8.14355287	     -0.86696464	     -5.44814255	    -20.36326012	     15.98467668	     -3.82031942	      7.14741178	     -2.48463516	     -9.30064224	    -19.50893854	      8.65615484	      0.99240065	    -10.84468603	      0.35488413	     -0.58116084
      4.01000000	     -2.55374402	     -2.68417205	    -98.75330223	      0.45961376	      0.91616235	      0.96976686	      8.03724307	     -0.50886840	     -4.61797673	    -19.43985354	     15.77457985	     -3.39145390	      7.00623096	     -2.56155046	     -9.42830153	    -19.62305276	      8.96611845	      0.98160805	    -10.72972720	      0.34259276	     -0.55533486
      4.02000000	     -2.59547992	     -2.59339017	    -98.86462119	      0.45924643	      0.91590287	      0.97303036	      7.97261015	     -0.17320053	     -3.67994061	    -18.69515929	     15.46167542	     -3.03966244	      6.89533974	     -2.62514188	     -9.55290783	    -19.71976662	      9.26354442	      0.97906750	    -10.56883740	      0.31186609	     -0.51284429
      4.03000000	     -2.58916615	     -2.50241508	    -98.98262825	      0.45882855	      0.91557075	      0.97617828	      7.93180566	      0.10260090	     -2.63919498	    -18.11948609	     15.10793914	     -2.50277342	      6.79853122	     -2.63844220	     -9.66551957	    -19.81756596	      9.55058901	      0.97579351	    -10.40082090	      0.22426585	     -0.42063118
      4.04000000	     -2.57049723	     -2.38621959	    -99.07809052	      0.45838069	      0.91516096	      0.97925237	      7.91136813	      0.35574603	     -1.57663054	    -17.65772212	     14.60494778	     -2.20139562	      6.73992928	     -2.65030146	     -9.78981058	    -19.91679333	      9.83715750	      0.98031798	    -10.19565032	      0.13383064	     -0.35267671
      4.05000000	     -2.50110546	     -2.26832175	    -99.17323355	      0.45788689	      0.91467584	      0.98224810	      7.91253152	      0.53572160	     -0.51628518	    -17.32701439	     14.07256358	     -1.82610144	      6.69050231	     -2.60692158	     -9.89538517	    -20.00637685	     10.12174100	      0.98327662	     -9.97769223	     -0.01606646	     -0.24410667
      4.06000000	     -2.41578254	     -2.15963854	    -99.24079042	      0.45737117	      0.91416045	      0.98522003	      7.89752156	      0.67046152	      0.45314695	    -17.08337243	     13.45101982	     -1.65865050	      6.62871205	     -2.54858766	    -10.00928376	    -20.07529022	     10.39276189	      0.98719837	     -9.75800011	     -0.17578931	     -0.16996192
      4.07000000	     -2.29125686	     -2.07227163	    -99.28318099	      0.45685521	      0.91361391	      0.98816137	      7.87332808	      0.72614384	      1.28745122	    -16.93949328	     12.83942957	     -1.57140435	      6.54442004	     -2.43671352	    -10.07778147	    -20.12371246	     10.65668587	      0.99166781	     -9.55129187	     -0.37885306	     -0.07710898
      4.08000000	     -2.13015146	     -2.00809224	    -99.31472585	      0.45630169	      0.91304841	      0.99113845	      7.82312317	      0.70281700	      1.95287542	    -16.85998907	     12.29921974	     -1.55345994	      6.42001120	     -2.28527598	    -10.17928378	    -20.13593061	     10.92214220	      0.99094711	     -9.34501840	     -0.61845539	      0.00765456
      4.09000000	     -1.93671036	     -1.98060823	    -99.30907891	      0.45577040	      0.91249189	      0.99414653	      7.72572202	      0.59532356	      2.39681432	    -16.82342452	     11.87767404	     -1.61036429	      6.24306375	     -2.08588972	    -10.25516194	    -20.10555795	     11.17961348	      0.98962649	     -9.16020209	     -0.88828702	      0.08734545
      4.10000000	     -1.71991314	     -1.99854427	    -99.27943391	      0.45524305	      0.91196666	      0.99719534	      7.56538996	      0.41615299	      2.63274704	    -16.81009433	     11.62364753	     -1.71514950	      5.99830540	     -1.84871668	    -10.31610779	    -20.03271256	     11.42567992	      0.98850242	     -9.00702842	     -1.17888512	      0.16676312
